<svg width="44" height="45" viewBox="0 0 44 45" fill="none" xmlns="http://www.w3.org/2000/svg">
<rect x="44" y="0.555176" width="44" height="44" rx="7" transform="rotate(90 44 0.555176)" fill="#182759"/>
<rect x="43.5" y="1.05518" width="43" height="43" rx="6.5" transform="rotate(90 43.5 1.05518)" stroke="white" stroke-opacity="0.5"/>
<path d="M35 24.0552C35 31.2351 29.1799 37.0552 22 37.0552C14.8201 37.0552 9 31.2351 9 24.0552C9 16.8753 14.8201 11.0552 22 11.0552C29.1799 11.0552 35 16.8753 35 24.0552Z" stroke="white" stroke-width="1.5" stroke-linecap="round" stroke-linejoin="round"/>
<path d="M16.7994 21.8618C18.3065 20.7579 20.1247 20.1599 21.9929 20.1536C23.9143 20.1536 25.7031 20.7854 27.1994 21.8709M24.8256 25.3536C23.9588 24.8711 22.9836 24.617 21.9916 24.6152C21.0045 24.6172 20.0341 24.869 19.1706 25.3471M21.9994 29.2536H22.0072" stroke="white" stroke-width="1.5" stroke-linecap="round" stroke-linejoin="round"/>
</svg>
