<svg width="40" height="40" viewBox="0 0 40 40" fill="none" xmlns="http://www.w3.org/2000/svg">
<path d="M31.1833 32.5002C29.8 34.5668 28.3333 36.5835 26.1 36.6168C23.8667 36.6668 23.15 35.3002 20.6167 35.3002C18.0667 35.3002 17.2833 36.5835 15.1667 36.6668C12.9833 36.7502 11.3333 34.4668 9.93333 32.4502C7.08333 28.3335 4.9 20.7502 7.83333 15.6502C9.28333 13.1168 11.8833 11.5168 14.7 11.4668C16.8333 11.4335 18.8667 12.9168 20.1833 12.9168C21.4833 12.9168 23.95 11.1335 26.5333 11.4002C27.6167 11.4502 30.65 11.8335 32.6 14.7002C32.45 14.8002 28.9833 16.8335 29.0167 21.0502C29.0667 26.0835 33.4333 27.7668 33.4833 27.7835C33.4333 27.9002 32.7833 30.1835 31.1833 32.5002ZM21.6667 5.8335C22.8833 4.45016 24.9 3.40016 26.5667 3.3335C26.7833 5.2835 26 7.25016 24.8333 8.65016C23.6833 10.0668 21.7833 11.1668 19.9167 11.0168C19.6667 9.10016 20.6 7.10016 21.6667 5.8335Z" fill="#182759"/>
</svg>
