<svg width="40" height="41" viewBox="0 0 40 41" fill="none" xmlns="http://www.w3.org/2000/svg">
<path d="M31.1833 33C29.8 35.0667 28.3333 37.0834 26.1 37.1167C23.8667 37.1667 23.15 35.8 20.6167 35.8C18.0667 35.8 17.2833 37.0834 15.1667 37.1667C12.9833 37.25 11.3333 34.9667 9.93333 32.95C7.08332 28.8334 4.89999 21.25 7.83332 16.15C9.28332 13.6167 11.8833 12.0167 14.7 11.9667C16.8333 11.9334 18.8667 13.4167 20.1833 13.4167C21.4833 13.4167 23.95 11.6334 26.5333 11.9C27.6167 11.95 30.65 12.3334 32.6 15.2C32.45 15.3 28.9833 17.3334 29.0167 21.55C29.0667 26.5834 33.4333 28.2667 33.4833 28.2834C33.4333 28.4 32.7833 30.6834 31.1833 33ZM21.6667 6.33337C22.8833 4.95004 24.9 3.90004 26.5667 3.83337C26.7833 5.78337 26 7.75004 24.8333 9.15004C23.6833 10.5667 21.7833 11.6667 19.9167 11.5167C19.6667 9.60004 20.6 7.60004 21.6667 6.33337Z" fill="white"/>
</svg>
