<svg width="24" height="25" viewBox="0 0 24 25" fill="none" xmlns="http://www.w3.org/2000/svg">
<path d="M17.45 23.2539C16.32 23.2539 15.13 22.9839 13.9 22.4639C12.7 21.9539 11.49 21.2539 10.31 20.4039C9.14 19.5439 8.01 18.5839 6.94 17.5339C5.88 16.4639 4.92 15.3339 4.07 14.1739C3.21 12.9739 2.52 11.7739 2.03 10.6139C1.51 9.37391 1.25 8.17391 1.25 7.04391C1.25 6.26391 1.39 5.52391 1.66 4.83391C1.94 4.12391 2.39 3.46391 3 2.89391C3.77 2.13391 4.65 1.75391 5.59 1.75391C5.98 1.75391 6.38 1.84391 6.72 2.00391C7.11 2.18391 7.44 2.45391 7.68 2.81391L10 6.08391C10.21 6.37391 10.37 6.65391 10.48 6.93391C10.61 7.23391 10.68 7.53391 10.68 7.82391C10.68 8.20391 10.57 8.57391 10.36 8.92391C10.21 9.19391 9.98 9.48391 9.69 9.77391L9.01 10.4839C9.02 10.5139 9.03 10.5339 9.04 10.5539C9.16 10.7639 9.4 11.1239 9.86 11.6639C10.35 12.2239 10.81 12.7339 11.27 13.2039C11.86 13.7839 12.35 14.2439 12.81 14.6239C13.38 15.1039 13.75 15.3439 13.97 15.4539L13.95 15.5039L14.68 14.7839C14.99 14.4739 15.29 14.2439 15.58 14.0939C16.13 13.7539 16.83 13.6939 17.53 13.9839C17.79 14.0939 18.07 14.2439 18.37 14.4539L21.69 16.8139C22.06 17.0639 22.33 17.3839 22.49 17.7639C22.64 18.1439 22.71 18.4939 22.71 18.8439C22.71 19.3239 22.6 19.8039 22.39 20.2539C22.18 20.7039 21.92 21.0939 21.59 21.4539C21.02 22.0839 20.4 22.5339 19.68 22.8239C18.99 23.1039 18.24 23.2539 17.45 23.2539ZM5.59 3.25391C5.04 3.25391 4.53 3.49391 4.04 3.97391C3.58 4.40391 3.26 4.87391 3.06 5.38391C2.85 5.90391 2.75 6.45391 2.75 7.04391C2.75 7.97391 2.97 8.98391 3.41 10.0239C3.86 11.0839 4.49 12.1839 5.29 13.2839C6.09 14.3839 7 15.4539 8 16.4639C9 17.4539 10.08 18.3739 11.19 19.1839C12.27 19.9739 13.38 20.6139 14.48 21.0739C16.19 21.8039 17.79 21.9739 19.11 21.4239C19.62 21.2139 20.07 20.8939 20.48 20.4339C20.71 20.1839 20.89 19.9139 21.04 19.5939C21.16 19.3439 21.22 19.0839 21.22 18.8239C21.22 18.6639 21.19 18.5039 21.11 18.3239C21.08 18.2639 21.02 18.1539 20.83 18.0239L17.51 15.6639C17.31 15.5239 17.13 15.4239 16.96 15.3539C16.74 15.2639 16.65 15.1739 16.31 15.3839C16.11 15.4839 15.93 15.6339 15.73 15.8339L14.97 16.5839C14.58 16.9639 13.98 17.0539 13.52 16.8839L13.25 16.7639C12.84 16.5439 12.36 16.2039 11.83 15.7539C11.35 15.3439 10.83 14.8639 10.2 14.2439C9.71 13.7439 9.22 13.2139 8.71 12.6239C8.24 12.0739 7.9 11.6039 7.69 11.2139L7.57 10.9139C7.51 10.6839 7.49 10.5539 7.49 10.4139C7.49 10.0539 7.62 9.73391 7.87 9.48391L8.62 8.70391C8.82 8.50391 8.97 8.31391 9.07 8.14391C9.15 8.01391 9.18 7.90391 9.18 7.80391C9.18 7.72391 9.15 7.60391 9.1 7.48391C9.03 7.32391 8.92 7.14391 8.78 6.95391L6.46 3.67391C6.36 3.53391 6.24 3.43391 6.09 3.36391C5.93 3.29391 5.76 3.25391 5.59 3.25391ZM13.95 15.5139L13.79 16.1939L14.06 15.4939C14.01 15.4839 13.97 15.4939 13.95 15.5139Z" fill="#292D32" fill-opacity="0.7"/>
</svg>
