<svg width="62" height="62" viewBox="0 0 62 62" fill="none" xmlns="http://www.w3.org/2000/svg">
<rect x="34.6871" y="0.121338" width="44" height="44" rx="7" transform="rotate(52.031 34.6871 0.121338)" fill="#182759"/>
<path d="M35.9824 45.7534C35.6449 45.7534 35.3324 45.566 35.1699 45.2785C35.0074 44.991 35.0074 44.6285 35.1824 44.341L36.4949 42.1535C36.7574 41.7035 37.3324 41.566 37.7824 41.8285C38.2324 42.091 38.3699 42.6659 38.1074 43.1159L37.7699 43.6785C41.2199 42.866 43.8074 39.7659 43.8074 36.0659C43.8074 35.5534 44.2324 35.1284 44.7449 35.1284C45.2574 35.1284 45.6824 35.5534 45.6824 36.0659C45.6699 41.4034 41.3199 45.7534 35.9824 45.7534Z" fill="white"/>
<path d="M17.2321 27.0034C16.7196 27.0034 16.2946 26.5784 16.2946 26.0659C16.2946 20.7284 20.6446 16.3784 25.9821 16.3784C26.3196 16.3784 26.6321 16.5659 26.7946 16.8534C26.9571 17.1409 26.9571 17.5034 26.7821 17.7909L25.4696 19.9784C25.2071 20.4284 24.6321 20.5659 24.1821 20.3034C23.7321 20.0409 23.5946 19.466 23.8571 19.016L24.1946 18.4535C20.7446 19.266 18.1571 22.3659 18.1571 26.0659C18.1696 26.5784 17.7446 27.0034 17.2321 27.0034Z" fill="white"/>
<path d="M27.7698 36.2034L24.2573 36.2034C23.7448 36.2034 23.3198 35.7784 23.3198 35.2659L23.3198 32.4534C23.3198 31.9409 23.7448 31.5159 24.2573 31.5159L27.7698 31.5159C29.0198 31.5159 30.1198 32.6159 30.1198 33.8659C30.1198 35.1409 29.0573 36.2034 27.7698 36.2034ZM25.1948 34.3284L27.7698 34.3284C28.0323 34.3284 28.2448 34.1159 28.2448 33.8534C28.2448 33.6659 28.0323 33.3784 27.7698 33.3784L25.1948 33.3784L25.1948 34.3284Z" fill="white"/>
<path d="M28.2694 39.0159L24.2444 39.0159C23.7319 39.0159 23.3069 38.5909 23.3069 38.0784L23.3069 35.2659C23.3069 34.7534 23.7319 34.3284 24.2444 34.3284L28.2694 34.3284C29.6694 34.3284 30.8194 35.3784 30.8194 36.6784C30.8194 37.9784 29.6819 39.0159 28.2694 39.0159ZM25.1944 37.1409L28.2819 37.1409C28.6819 37.1409 28.9569 36.8909 28.9569 36.6659C28.9569 36.4409 28.6819 36.1909 28.2819 36.1909L25.1944 36.1909L25.1944 37.1409Z" fill="white"/>
<path d="M26.507 40.4159C25.9945 40.4159 25.5695 39.9909 25.5695 39.4784L25.5695 38.0659C25.5695 37.5534 25.9945 37.1284 26.507 37.1284C27.0195 37.1284 27.4445 37.5534 27.4445 38.0659L27.4445 39.4784C27.4445 40.0034 27.0195 40.4159 26.507 40.4159Z" fill="white"/>
<path d="M26.507 33.3786C25.9945 33.3786 25.5695 32.9536 25.5695 32.4411L25.5695 31.0286C25.5695 30.5161 25.9945 30.0911 26.507 30.0911C27.0195 30.0911 27.4445 30.5161 27.4445 31.0286L27.4445 32.4411C27.4445 32.9661 27.0195 33.3786 26.507 33.3786Z" fill="white"/>
<path d="M26.8196 43.916C22.0446 43.916 18.1696 40.0285 18.1696 35.266C18.1696 30.5035 22.0571 26.616 26.8196 26.616C27.0446 26.616 27.2446 26.6285 27.4696 26.641C31.7071 26.966 35.1321 30.391 35.4446 34.6035C35.4571 34.8785 35.4696 35.066 35.4696 35.266C35.4821 40.0285 31.5946 43.916 26.8196 43.916ZM26.8196 28.4785C23.0821 28.4785 20.0446 31.516 20.0446 35.2535C20.0446 38.991 23.0821 42.0285 26.8196 42.0285C30.5571 42.0285 33.6071 38.991 33.6071 35.2535C33.6071 35.091 33.5946 34.9285 33.5821 34.766C33.3321 31.416 30.6446 28.741 27.3446 28.491C27.1821 28.491 27.0071 28.4785 26.8196 28.4785Z" fill="white"/>
<path d="M35.1448 35.6034L34.5323 35.6034C34.0448 35.6034 33.6323 35.2284 33.5948 34.7409C33.3448 31.4284 30.6698 28.7534 27.3573 28.5034C26.8698 28.4659 26.4948 28.0534 26.4948 27.5659L26.4948 26.9534C26.4948 22.1784 30.3823 18.3035 35.1573 18.3035C39.9323 18.3035 43.8073 22.1909 43.8073 26.9534C43.8073 31.7159 39.9073 35.6034 35.1448 35.6034ZM28.3573 26.741C31.8823 27.3785 34.7073 30.1909 35.3448 33.7284C38.9948 33.6159 41.9198 30.6159 41.9198 26.9534C41.9198 23.2159 38.8823 20.1785 35.1448 20.1785C31.4698 20.166 28.4698 23.091 28.3573 26.741Z" fill="white"/>
</svg>
