<svg width="44" height="45" viewBox="0 0 44 45" fill="none" xmlns="http://www.w3.org/2000/svg">
<rect x="44" y="0.555176" width="44" height="44" rx="7" transform="rotate(90 44 0.555176)" fill="#182759"/>
<rect x="43.5" y="1.05518" width="43" height="43" rx="6.5" transform="rotate(90 43.5 1.05518)" stroke="white" stroke-opacity="0.5"/>
<g filter="url(#filter0_d_2428_7510)">
<g clip-path="url(#clip0_2428_7510)">
<path d="M22 36.0552C28.6274 36.0552 34 30.6826 34 24.0552C34 17.4278 28.6274 12.0552 22 12.0552C15.3726 12.0552 10 17.4278 10 24.0552C10 30.6826 15.3726 36.0552 22 36.0552Z" stroke="white" stroke-width="1.3" stroke-linecap="round" stroke-linejoin="round"/>
<path d="M10 24.0552H34M22 12.0552C18.9187 15.2906 17.2 19.5873 17.2 24.0552C17.2 28.5231 18.9187 32.8198 22 36.0552C25.0813 32.8198 26.8 28.5231 26.8 24.0552C26.8 19.5873 25.0813 15.2906 22 12.0552Z" stroke="white" stroke-width="1.3" stroke-linecap="round" stroke-linejoin="round"/>
</g>
<rect x="10.75" y="12.8052" width="22.5" height="22.5" rx="11.25" stroke="white" stroke-width="1.5" shape-rendering="crispEdges"/>
</g>
<defs>
<filter id="filter0_d_2428_7510" x="6" y="8.05518" width="32" height="32" filterUnits="userSpaceOnUse" color-interpolation-filters="sRGB">
<feFlood flood-opacity="0" result="BackgroundImageFix"/>
<feColorMatrix in="SourceAlpha" type="matrix" values="0 0 0 0 0 0 0 0 0 0 0 0 0 0 0 0 0 0 127 0" result="hardAlpha"/>
<feOffset/>
<feGaussianBlur stdDeviation="0.5"/>
<feComposite in2="hardAlpha" operator="out"/>
<feColorMatrix type="matrix" values="0 0 0 0 0.117647 0 0 0 0 0.117647 0 0 0 0 0.117647 0 0 0 0.3 0"/>
<feBlend mode="normal" in2="BackgroundImageFix" result="effect1_dropShadow_2428_7510"/>
<feBlend mode="normal" in="SourceGraphic" in2="effect1_dropShadow_2428_7510" result="shape"/>
</filter>
<clipPath id="clip0_2428_7510">
<rect x="10" y="12.0552" width="24" height="24" rx="12" fill="white"/>
</clipPath>
</defs>
</svg>
