<svg width="44" height="45" viewBox="0 0 44 45" fill="none" xmlns="http://www.w3.org/2000/svg">
<rect x="44" y="0.555176" width="44" height="44" rx="7" transform="rotate(90 44 0.555176)" fill="#182759"/>
<rect x="43.5" y="1.05518" width="43" height="43" rx="6.5" transform="rotate(90 43.5 1.05518)" stroke="white" stroke-opacity="0.5"/>
<path d="M13.7713 26.4545C12.8709 24.98 12.3961 23.285 12.3996 21.5573C12.3996 16.3085 16.6982 12.0544 22 12.0544C27.3018 12.0544 31.6004 16.3085 31.6004 21.5573C31.6039 23.285 31.1291 24.98 30.2287 26.4545" stroke="white" stroke-width="1.3" stroke-linecap="round" stroke-linejoin="round"/>
<path d="M24.4002 21.6558C23.6646 22.4274 22.8534 22.8558 22.0001 22.8558M22.0001 22.8558C21.1469 22.8558 20.3357 22.4274 19.6 21.6558M22.0001 22.8558L22.0001 28.2558M25.6003 32.4558L25.4443 33.2322C25.2763 34.0806 25.1911 34.5042 25.0002 34.8402C24.7062 35.3581 24.2302 35.7481 23.6646 35.9346C23.2986 36.0558 22.8642 36.0558 22.0001 36.0558C21.1361 36.0558 20.7017 36.0558 20.3357 35.9358C19.7699 35.749 19.2938 35.3585 19 34.8402C18.8092 34.5042 18.724 34.0806 18.556 33.2322L18.4 32.4558M16.4595 30.1734C16.3491 29.8422 16.2939 29.6754 16.2999 29.541C16.3067 29.402 16.3536 29.268 16.435 29.1551C16.5163 29.0423 16.6286 28.9554 16.7583 28.905C16.8831 28.8558 17.0584 28.8558 17.4064 28.8558L26.5939 28.8558C26.9431 28.8558 27.1171 28.8558 27.2419 28.9038C27.3718 28.9543 27.4842 29.0413 27.5656 29.1544C27.647 29.2675 27.6938 29.4018 27.7003 29.541C27.7063 29.6754 27.6511 29.841 27.5407 30.1734C27.3367 30.7866 27.2347 31.0938 27.0775 31.3422C26.7487 31.8613 26.2333 32.2346 25.6375 32.385C25.3519 32.4558 25.0302 32.4558 24.3858 32.4558L19.6144 32.4558C18.97 32.4558 18.6472 32.4558 18.3628 32.3838C17.7672 32.2337 17.2518 31.8609 16.9227 31.3422C16.7655 31.0938 16.6635 30.7866 16.4595 30.1734Z" stroke="white" stroke-width="1.3" stroke-linecap="round" stroke-linejoin="round"/>
</svg>
