<svg width="1440" height="303" viewBox="0 0 1440 303" fill="none" xmlns="http://www.w3.org/2000/svg">
<rect x="387.306" y="77.2825" width="198" height="70" rx="14" transform="rotate(20.0715 387.306 77.2825)" stroke="#E1E7FF" stroke-width="2"/>
<rect x="116.306" y="104.282" width="198" height="70" rx="14" transform="rotate(20.0715 116.306 104.282)" stroke="#E1E7FF" stroke-width="2"/>
<rect x="69.306" y="208.282" width="198" height="70" rx="14" transform="rotate(20.0715 69.306 208.282)" stroke="#E1E7FF" stroke-width="2"/>
<rect x="655.306" y="56.2825" width="198" height="70" rx="14" transform="rotate(20.0715 655.306 56.2825)" stroke="#E1E7FF" stroke-width="2"/>
<rect x="924.306" y="28.2825" width="198" height="70" rx="14" transform="rotate(20.0715 924.306 28.2825)" stroke="#E1E7FF" stroke-width="2"/>
<rect x="434.306" y="-28.7175" width="198" height="70" rx="14" transform="rotate(20.0715 434.306 -28.7175)" stroke="#E1E7FF" stroke-width="2"/>
<rect x="163.306" y="-1.71754" width="198" height="70" rx="14" transform="rotate(20.0715 163.306 -1.71754)" stroke="#E1E7FF" stroke-width="2"/>
<rect x="611.306" y="165.282" width="198" height="70" rx="14" transform="rotate(20.0715 611.306 165.282)" stroke="#E1E7FF" stroke-width="2"/>
<rect x="880.306" y="137.282" width="198" height="70" rx="14" transform="rotate(20.0715 880.306 137.282)" stroke="#E1E7FF" stroke-width="2"/>
<rect x="848.306" y="247.282" width="198" height="70" rx="14" transform="rotate(20.0715 848.306 247.282)" stroke="#E1E7FF" stroke-width="2"/>
<rect x="697.306" y="-58.7175" width="198" height="70" rx="14" transform="rotate(20.0715 697.306 -58.7175)" stroke="#E1E7FF" stroke-width="2"/>
<rect x="1200.31" y="1.28246" width="198" height="70" rx="14" transform="rotate(20.0715 1200.31 1.28246)" stroke="#E1E7FF" stroke-width="2"/>
<rect x="1156.31" y="110.282" width="198" height="70" rx="14" transform="rotate(20.0715 1156.31 110.282)" stroke="#E1E7FF" stroke-width="2"/>
<rect x="1117.31" y="220.282" width="198" height="70" rx="14" transform="rotate(20.0715 1117.31 220.282)" stroke="#E1E7FF" stroke-width="2"/>
<rect x="1431.31" y="81.2825" width="198" height="70" rx="14" transform="rotate(20.0715 1431.31 81.2825)" stroke="#E1E7FF" stroke-width="2"/>
<rect x="1387.31" y="190.282" width="198" height="70" rx="14" transform="rotate(20.0715 1387.31 190.282)" stroke="#E1E7FF" stroke-width="2"/>
<rect x="344.306" y="190.282" width="198" height="70" rx="14" transform="rotate(20.0715 344.306 190.282)" stroke="#E1E7FF" stroke-width="2"/>
<rect x="-152.694" y="122.282" width="198" height="70" rx="14" transform="rotate(20.0715 -152.694 122.282)" stroke="#E1E7FF" stroke-width="2"/>
<rect x="-105.694" y="16.2825" width="198" height="70" rx="14" transform="rotate(20.0715 -105.694 16.2825)" stroke="#E1E7FF" stroke-width="2"/>
</svg>
