<svg width="115" height="55" viewBox="0 0 115 55" fill="none" xmlns="http://www.w3.org/2000/svg">
<rect width="115" height="55" rx="10" fill="url(#paint0_linear_2227_6552)"/>
<path d="M35.541 41.8797C34.8914 41.5047 34.3186 40.9719 33.872 40.2955L31.3771 36.5168C30.8535 35.7237 29.9658 35.2112 29.0063 35.148L24.4864 34.8767C22.3102 34.7461 20.5491 33.2963 20.0097 31.1807C19.4702 29.065 20.303 26.9477 22.1594 25.7823L36.0066 17.0482C37.5552 16.0659 39.512 16.0266 41.1034 16.9453C42.6947 17.8641 43.639 19.5784 43.5627 21.4107L42.9223 37.7698C42.8304 39.9539 41.424 41.74 39.3221 42.3307C37.9948 42.7046 36.656 42.5235 35.541 41.8797ZM31.2971 33.9303C31.9575 34.3115 32.5195 34.8381 32.9461 35.4741L35.441 39.2528C36.3388 40.6227 37.7784 40.8044 38.8154 40.5082C39.8524 40.212 40.9867 39.3225 41.0513 37.6855L41.6916 21.3264C41.7324 20.1808 41.1618 19.1441 40.1659 18.5691C39.1699 17.9941 37.9868 18.0183 37.0089 18.6373L23.1617 27.3713C21.7763 28.2458 21.556 29.6774 21.8351 30.719C22.1142 31.7606 22.9804 32.9102 24.6095 33.0136L29.1294 33.2849C29.8998 33.3256 30.6368 33.549 31.2971 33.9303Z" fill="#182759"/>
<path d="M73.8966 38.0547C72.3053 37.136 71.361 35.4216 71.4373 33.5893L72.0777 17.2303C72.1587 15.0399 73.576 13.2601 75.6779 12.6694C77.7799 12.0787 79.9159 12.879 81.1172 14.6983L83.6121 18.477C84.1357 19.2701 85.0234 19.7826 85.9828 19.8458L90.5027 20.1171C92.6898 20.254 94.4509 21.7037 94.9903 23.8194C95.5298 25.9351 94.697 28.0524 92.8406 29.2178L78.9934 37.9518C77.4448 38.9341 75.488 38.9735 73.8966 38.0547ZM78.5215 14.7442C77.7529 14.3004 76.8693 14.281 76.18 14.4748C75.143 14.771 74.0087 15.6605 73.9441 17.2975L73.3038 33.6566C73.2568 34.813 73.8274 35.8497 74.8233 36.4247C75.8192 36.9997 77.0023 36.9755 77.9803 36.3566L91.8275 27.6225C93.2129 26.748 93.4332 25.3164 93.1541 24.2748C92.8858 23.2395 92.0196 22.0898 90.3797 21.9802L85.8598 21.7089C84.3145 21.6105 82.8963 20.7918 82.0385 19.5026L79.5544 15.7302C79.2618 15.287 78.9004 14.9629 78.5215 14.7442Z" fill="#182759"/>
<defs>
<linearGradient id="paint0_linear_2227_6552" x1="115" y1="-6.29371e-06" x2="14" y2="45" gradientUnits="userSpaceOnUse">
<stop stop-color="white" stop-opacity="0.8"/>
<stop offset="1" stop-color="white" stop-opacity="0.8"/>
</linearGradient>
</defs>
</svg>
