<svg width="32" height="33" viewBox="0 0 32 33" fill="none" xmlns="http://www.w3.org/2000/svg">
<path d="M10.4001 3.1687H21.6001C25.8668 3.1687 29.3334 6.63537 29.3334 10.902V22.102C29.3334 24.153 28.5187 26.1201 27.0684 27.5703C25.6181 29.0206 23.6511 29.8354 21.6001 29.8354H10.4001C6.13342 29.8354 2.66675 26.3687 2.66675 22.102V10.902C2.66675 8.85103 3.48151 6.88402 4.93179 5.43374C6.38207 3.98346 8.34908 3.1687 10.4001 3.1687ZM10.1334 5.83537C8.86038 5.83537 7.63948 6.34108 6.7393 7.24126C5.83913 8.14143 5.33342 9.36233 5.33342 10.6354V22.3687C5.33342 25.022 7.48008 27.1687 10.1334 27.1687H21.8668C23.1398 27.1687 24.3607 26.663 25.2609 25.7628C26.161 24.8626 26.6668 23.6417 26.6668 22.3687V10.6354C26.6668 7.98204 24.5201 5.83537 21.8668 5.83537H10.1334ZM23.0001 7.83537C23.4421 7.83537 23.866 8.01096 24.1786 8.32352C24.4912 8.63609 24.6668 9.06001 24.6668 9.50204C24.6668 9.94406 24.4912 10.368 24.1786 10.6805C23.866 10.9931 23.4421 11.1687 23.0001 11.1687C22.5581 11.1687 22.1341 10.9931 21.8216 10.6805C21.509 10.368 21.3334 9.94406 21.3334 9.50204C21.3334 9.06001 21.509 8.63609 21.8216 8.32352C22.1341 8.01096 22.5581 7.83537 23.0001 7.83537ZM16.0001 9.83537C17.7682 9.83537 19.4639 10.5377 20.7141 11.788C21.9644 13.0382 22.6668 14.7339 22.6668 16.502C22.6668 18.2701 21.9644 19.9658 20.7141 21.2161C19.4639 22.4663 17.7682 23.1687 16.0001 23.1687C14.232 23.1687 12.5363 22.4663 11.286 21.2161C10.0358 19.9658 9.33342 18.2701 9.33342 16.502C9.33342 14.7339 10.0358 13.0382 11.286 11.788C12.5363 10.5377 14.232 9.83537 16.0001 9.83537ZM16.0001 12.502C14.9392 12.502 13.9218 12.9235 13.1717 13.6736C12.4215 14.4238 12.0001 15.4412 12.0001 16.502C12.0001 17.5629 12.4215 18.5803 13.1717 19.3305C13.9218 20.0806 14.9392 20.502 16.0001 20.502C17.061 20.502 18.0784 20.0806 18.8285 19.3305C19.5787 18.5803 20.0001 17.5629 20.0001 16.502C20.0001 15.4412 19.5787 14.4238 18.8285 13.6736C18.0784 12.9235 17.061 12.502 16.0001 12.502Z" fill="#182759"/>
</svg>
