<svg width="62" height="62" viewBox="0 0 62 62" fill="none" xmlns="http://www.w3.org/2000/svg">
<rect x="34.6871" y="0.0180664" width="44" height="44" rx="7" transform="rotate(52.031 34.6871 0.0180664)" fill="#ECF1FF"/>
<path d="M40.6667 39.8655L30.8408 39.8655C30.3533 39.8655 29.9525 39.4647 29.9525 38.9772C29.9525 38.4897 30.3533 38.0889 30.8408 38.0889L40.6667 38.0889C41.1542 38.0889 41.555 38.4897 41.555 38.9772C41.555 39.4755 41.1542 39.8655 40.6667 39.8655Z" fill="#3453BF"/>
<path d="M40.6667 33.0511L30.8408 33.0511C30.3533 33.0511 29.9525 32.6502 29.9525 32.1627C29.9525 31.6752 30.3533 31.2744 30.8408 31.2744L40.6667 31.2744C41.1542 31.2744 41.555 31.6752 41.555 32.1627C41.555 32.6502 41.1542 33.0511 40.6667 33.0511Z" fill="#3453BF"/>
<path d="M40.6667 26.2264L30.8408 26.2264C30.3533 26.2264 29.9525 25.8255 29.9525 25.338C29.9525 24.8505 30.3533 24.4497 30.8408 24.4497L40.6667 24.4497C41.1542 24.4497 41.555 24.8505 41.555 25.338C41.555 25.8255 41.1542 26.2264 40.6667 26.2264Z" fill="#3453BF"/>
<path d="M24.3192 27.6999C24.0808 27.6999 23.8533 27.6024 23.6908 27.4399L22.705 26.4541C22.3583 26.1074 22.3583 25.5441 22.705 25.1974C23.0517 24.8507 23.615 24.8507 23.9617 25.1974L24.3192 25.5549L26.6375 23.2366C26.9842 22.8899 27.5475 22.8899 27.8942 23.2366C28.2408 23.5832 28.2408 24.1466 27.8942 24.4932L24.9475 27.4399C24.7742 27.6024 24.5575 27.6999 24.3192 27.6999Z" fill="#3453BF"/>
<path d="M24.3192 34.5246C24.0917 34.5246 23.8642 34.4379 23.6908 34.2646L22.705 33.2788C22.3583 32.9321 22.3583 32.3688 22.705 32.0221C23.0517 31.6754 23.615 31.6754 23.9617 32.0221L24.3192 32.3796L26.6375 30.0613C26.9842 29.7146 27.5475 29.7146 27.8942 30.0613C28.2408 30.4079 28.2408 30.9713 27.8942 31.3179L24.9475 34.2646C24.7742 34.4379 24.5467 34.5246 24.3192 34.5246Z" fill="#3453BF"/>
<path d="M24.3192 41.0246C24.0917 41.0246 23.8642 40.9379 23.6908 40.7646L22.705 39.7788C22.3583 39.4321 22.3583 38.8688 22.705 38.5221C23.0517 38.1754 23.615 38.1754 23.9617 38.5221L24.3192 38.8796L26.6375 36.5613C26.9842 36.2146 27.5475 36.2146 27.8942 36.5613C28.2408 36.9079 28.2408 37.4713 27.8942 37.8179L24.9475 40.7646C24.7742 40.9379 24.5467 41.0246 24.3192 41.0246Z" fill="#3453BF"/>
</svg>
