<svg width="24" height="25" viewBox="0 0 24 25" fill="none" xmlns="http://www.w3.org/2000/svg">
<path d="M17 21.7539H7C6.59 21.7539 6.25 21.4139 6.25 21.0039C6.25 20.5939 6.59 20.2539 7 20.2539H17C19.86 20.2539 21.25 18.8639 21.25 16.0039V9.00391C21.25 6.14391 19.86 4.75391 17 4.75391H7C4.14 4.75391 2.75 6.14391 2.75 9.00391C2.75 9.41391 2.41 9.75391 2 9.75391C1.59 9.75391 1.25 9.41391 1.25 9.00391C1.25 5.35391 3.35 3.25391 7 3.25391H17C20.65 3.25391 22.75 5.35391 22.75 9.00391V16.0039C22.75 19.6539 20.65 21.7539 17 21.7539Z" fill="#292D32" fill-opacity="0.7"/>
<path d="M11.9998 13.3739C11.1598 13.3739 10.3098 13.1139 9.65978 12.5839L6.52978 10.0839C6.20978 9.82388 6.14978 9.35387 6.40978 9.03387C6.66978 8.71387 7.13977 8.65388 7.45977 8.91388L10.5898 11.4139C11.3498 12.0239 12.6398 12.0239 13.3998 11.4139L16.5298 8.91388C16.8498 8.65388 17.3298 8.70387 17.5798 9.03387C17.8398 9.35387 17.7898 9.83388 17.4598 10.0839L14.3298 12.5839C13.6898 13.1139 12.8398 13.3739 11.9998 13.3739Z" fill="#292D32" fill-opacity="0.7"/>
<path d="M8 17.7539H2C1.59 17.7539 1.25 17.4139 1.25 17.0039C1.25 16.5939 1.59 16.2539 2 16.2539H8C8.41 16.2539 8.75 16.5939 8.75 17.0039C8.75 17.4139 8.41 17.7539 8 17.7539Z" fill="#292D32" fill-opacity="0.7"/>
<path d="M5 13.7539H2C1.59 13.7539 1.25 13.4139 1.25 13.0039C1.25 12.5939 1.59 12.2539 2 12.2539H5C5.41 12.2539 5.75 12.5939 5.75 13.0039C5.75 13.4139 5.41 13.7539 5 13.7539Z" fill="#292D32" fill-opacity="0.7"/>
</svg>
