<svg width="38" height="38" viewBox="0 0 38 38" fill="none" xmlns="http://www.w3.org/2000/svg">
<g clip-path="url(#clip0_2428_7351)">
<path d="M2.67267 0.335938C2.30071 0.623052 2.04204 1.06518 2.04166 1.57524V36.4165C2.04166 36.9339 2.30052 37.3726 2.67549 37.6618L21.6965 19.0002L2.67267 0.335938Z" fill="#29B6F6"/>
<path d="M2.67267 0.335938C2.30071 0.623052 2.04204 1.06518 2.04166 1.57524V36.4165C2.04166 36.9339 2.30052 37.3726 2.67549 37.6618L21.6965 19.0002L2.67267 0.335938Z" fill="url(#paint0_linear_2428_7351)"/>
<path d="M27.5555 13.2521C19.7594 8.80469 10.075 3.35628 4.2977 0.181976C3.73416 -0.126689 3.12 -0.00927213 2.67267 0.336116L21.6965 19.0004L27.5555 13.2521Z" fill="#00E676"/>
<path d="M27.5555 13.2521C19.7594 8.80469 10.075 3.35628 4.2977 0.181976C3.73416 -0.126689 3.12 -0.00927213 2.67267 0.336116L21.6965 19.0004L27.5555 13.2521Z" fill="url(#paint1_linear_2428_7351)"/>
<path d="M2.67549 37.6616C2.93313 37.8604 3.23715 38 3.58333 38C3.82722 38 4.06736 37.9358 4.29695 37.8097C10.0735 34.6362 19.7551 29.1895 27.5501 24.743L21.6965 19L2.67549 37.6616Z" fill="#F44336"/>
<path d="M2.67549 37.6616C2.93313 37.8604 3.23715 38 3.58333 38C3.82722 38 4.06736 37.9358 4.29695 37.8097C10.0735 34.6362 19.7551 29.1895 27.5501 24.743L21.6965 19L2.67549 37.6616Z" fill="url(#paint2_linear_2428_7351)"/>
<path d="M35.1739 17.6311C33.0989 16.4245 30.4538 14.9053 27.5555 13.252L21.6965 19.0002L27.5501 24.7432C30.4506 23.0887 33.0976 21.5686 35.1739 20.3615C35.658 20.0801 35.9583 19.5573 35.9583 18.9959C35.9583 18.4345 35.658 17.9117 35.1739 17.6311Z" fill="#FFEA00"/>
<path d="M35.1739 17.6311C33.0989 16.4245 30.4538 14.9053 27.5555 13.252L21.6965 19.0002L27.5501 24.7432C30.4506 23.0887 33.0976 21.5686 35.1739 20.3615C35.658 20.0801 35.9583 19.5573 35.9583 18.9959C35.9583 18.4345 35.658 17.9117 35.1739 17.6311Z" fill="url(#paint3_linear_2428_7351)"/>
<path opacity="0.2" d="M4.18761 0.577355C12.1721 4.93171 27.5813 13.5747 35.295 18.0266C35.5767 18.1886 35.7864 18.4363 35.9219 18.7208C35.8409 18.2689 35.577 17.8644 35.1739 17.6308C27.5175 13.1789 12.2228 4.53588 4.29771 0.181522C3.34997 -0.337622 2.25291 0.32822 2.07751 1.30988C2.43941 0.560733 3.3686 0.132043 4.18761 0.577355Z" fill="white"/>
<path opacity="0.1" d="M4.18761 37.4228C12.1721 33.0684 27.5813 24.4254 35.295 19.9736C35.5767 19.8115 35.7864 19.5638 35.9219 19.2793C35.8409 19.7313 35.577 20.1357 35.1739 20.3694C27.5175 24.8213 12.2228 33.4643 4.29771 37.8186C3.34997 38.3378 2.25291 37.6719 2.07751 36.6903C2.43941 37.4394 3.3686 37.8681 4.18761 37.4228Z" fill="#182759"/>
<path d="M35.1739 17.6292C33.0989 16.4226 10.075 3.35313 4.29771 0.178573C3.73417 -0.130117 3.12 -0.0126911 2.67267 0.332724C2.30071 0.619862 2.04204 1.06202 2.04166 1.57212V36.4162C2.04166 36.9336 2.30052 37.3724 2.67549 37.6615C2.93313 37.8603 3.23715 38 3.58333 38C3.82723 38 4.06736 37.9358 4.29695 37.8097C10.0735 34.6359 33.0976 21.5671 35.1739 20.3599C35.658 20.0784 35.9583 19.5556 35.9583 18.9941C35.9583 18.4327 35.658 17.9099 35.1739 17.6292Z" fill="url(#paint4_linear_2428_7351)"/>
</g>
<defs>
<linearGradient id="paint0_linear_2428_7351" x1="11.8691" y1="3.31391" x2="11.8691" y2="28.5053" gradientUnits="userSpaceOnUse">
<stop stop-color="#00B8D4" stop-opacity="0"/>
<stop offset="1" stop-color="white" stop-opacity="0.3"/>
</linearGradient>
<linearGradient id="paint1_linear_2428_7351" x1="1.06554" y1="3.87577" x2="26.5575" y2="15.4501" gradientUnits="userSpaceOnUse">
<stop stop-color="white" stop-opacity="0.2"/>
<stop offset="1" stop-color="white" stop-opacity="0"/>
</linearGradient>
<linearGradient id="paint2_linear_2428_7351" x1="12.0388" y1="28.0452" x2="18.3507" y2="34.191" gradientUnits="userSpaceOnUse">
<stop stop-opacity="0.1"/>
<stop offset="1" stop-opacity="0"/>
</linearGradient>
<linearGradient id="paint3_linear_2428_7351" x1="25.4193" y1="15.1768" x2="33.0594" y2="22.6157" gradientUnits="userSpaceOnUse">
<stop stop-opacity="0.05"/>
<stop offset="1" stop-opacity="0"/>
</linearGradient>
<linearGradient id="paint4_linear_2428_7351" x1="-4.2984" y1="15.2137" x2="30.6294" y2="31.0722" gradientUnits="userSpaceOnUse">
<stop stop-color="white" stop-opacity="0.2"/>
<stop offset="1" stop-color="white" stop-opacity="0"/>
</linearGradient>
<clipPath id="clip0_2428_7351">
<rect width="37" height="38" fill="white" transform="translate(0.5)"/>
</clipPath>
</defs>
</svg>
