<svg width="33" height="32" viewBox="0 0 33 32" fill="none" xmlns="http://www.w3.org/2000/svg">
<path d="M14.8277 22.1966L23.1503 19.4224C28.7441 17.5621 28.7441 14.5027 23.1503 12.6424L21.4586 12.0785C20.966 11.91 20.5835 11.5275 20.415 11.0349L19.8576 9.34966C17.9973 3.75586 14.9444 3.74937 13.0776 9.34966L10.3034 17.6723C9.05887 21.4058 11.0942 23.4411 14.8277 22.1966ZM14.173 17.3547L17.6732 13.8545C17.939 13.5888 18.3797 13.5888 18.6455 13.8545C18.9112 14.1203 18.9112 14.561 18.6455 14.8268L15.1453 18.327C14.8795 18.5927 14.4388 18.5927 14.173 18.327C13.9073 18.0612 13.9073 17.6205 14.173 17.3547Z" fill="white"/>
</svg>
