<svg width="30" height="30" viewBox="0 0 30 30" fill="none" xmlns="http://www.w3.org/2000/svg">
<g clip-path="url(#clip0_2428_8620)">
<rect x="30" width="30" height="30" rx="4.71101" transform="rotate(90 30 0)" fill="#182759"/>
<path d="M14.6103 4.45485C15.0867 4.72985 15.5067 5.12057 15.8343 5.61662L17.6639 8.38767C18.0478 8.96925 18.6988 9.34508 19.4024 9.39142L22.717 9.59037C24.3129 9.68617 25.6044 10.7493 26 12.3008C26.3955 13.8523 25.7849 15.405 24.4235 16.2596L14.2689 22.6646C13.1332 23.385 11.6982 23.4138 10.5312 22.7401C9.36428 22.0663 8.67176 20.8091 8.72777 19.4654L9.19733 7.4688C9.26472 5.86707 10.2961 4.5573 11.8375 4.12414C12.8109 3.84991 13.7927 3.98276 14.6103 4.45485ZM17.7225 10.2844C17.2382 10.0049 16.8261 9.61872 16.5132 9.15229L14.6836 6.38125C14.0252 5.37662 12.9696 5.24344 12.2091 5.46063C11.4486 5.67782 10.6168 6.33017 10.5694 7.53062L10.0998 19.5273C10.07 20.3674 10.4884 21.1276 11.2187 21.5493C11.9491 21.9709 12.8167 21.9532 13.5339 21.4993L23.6885 15.0944C24.7044 14.4531 24.866 13.4032 24.6613 12.6394C24.4567 11.8755 23.8214 11.0325 22.6268 10.9566L19.3122 10.7577C18.7472 10.7279 18.2068 10.564 17.7225 10.2844Z" fill="white"/>
</g>
<defs>
<clipPath id="clip0_2428_8620">
<rect x="30" width="30" height="30" rx="4.71101" transform="rotate(90 30 0)" fill="white"/>
</clipPath>
</defs>
</svg>
