<svg width="62" height="62" viewBox="0 0 62 62" fill="none" xmlns="http://www.w3.org/2000/svg">
<rect x="34.6871" y="0.0180664" width="44" height="44" rx="7" transform="rotate(52.031 34.6871 0.0180664)" fill="#ECF1FF"/>
<path d="M28.1596 30.6259C28.1296 30.6259 28.1096 30.6259 28.0796 30.6259C28.0296 30.6159 27.9596 30.6159 27.8996 30.6259C24.9996 30.5359 22.8096 28.2559 22.8096 25.4459C22.8096 22.5859 25.1396 20.2559 27.9996 20.2559C30.8596 20.2559 33.1896 22.5859 33.1896 25.4459C33.1796 28.2559 30.9796 30.5359 28.1896 30.6259C28.1796 30.6259 28.1696 30.6259 28.1596 30.6259ZM27.9996 21.7559C25.9696 21.7559 24.3096 23.4159 24.3096 25.4459C24.3096 27.4459 25.8696 29.0559 27.8596 29.1259C27.9196 29.1159 28.0496 29.1159 28.1796 29.1259C30.1396 29.0359 31.6796 27.4259 31.6896 25.4459C31.6896 23.4159 30.0296 21.7559 27.9996 21.7559Z" fill="#3453BF"/>
<path d="M35.5396 30.7559C35.5096 30.7559 35.4796 30.7559 35.4496 30.7459C35.0396 30.7859 34.6196 30.4959 34.5796 30.0859C34.5396 29.6759 34.7896 29.3059 35.1996 29.2559C35.3196 29.2459 35.4496 29.2459 35.5596 29.2459C37.0196 29.1659 38.1596 27.9659 38.1596 26.4959C38.1596 24.9759 36.9296 23.7459 35.4096 23.7459C34.9996 23.7559 34.6596 23.4159 34.6596 23.0059C34.6596 22.5959 34.9996 22.2559 35.4096 22.2559C37.7496 22.2559 39.6596 24.1659 39.6596 26.5059C39.6596 28.8059 37.8596 30.6659 35.5696 30.7559C35.5596 30.7559 35.5496 30.7559 35.5396 30.7559Z" fill="#3453BF"/>
<path d="M28.1696 41.5559C26.2096 41.5559 24.2396 41.0559 22.7496 40.0559C21.3596 39.1359 20.5996 37.8759 20.5996 36.5059C20.5996 35.1359 21.3596 33.8659 22.7496 32.9359C25.7496 30.9459 30.6096 30.9459 33.5896 32.9359C34.9696 33.8559 35.7396 35.1159 35.7396 36.4859C35.7396 37.8559 34.9796 39.1259 33.5896 40.0559C32.0896 41.0559 30.1296 41.5559 28.1696 41.5559ZM23.5796 34.1959C22.6196 34.8359 22.0996 35.6559 22.0996 36.5159C22.0996 37.3659 22.6296 38.1859 23.5796 38.8159C26.0696 40.4859 30.2696 40.4859 32.7596 38.8159C33.7196 38.1759 34.2396 37.3559 34.2396 36.4959C34.2396 35.6459 33.7096 34.8259 32.7596 34.1959C30.2696 32.5359 26.0696 32.5359 23.5796 34.1959Z" fill="#3453BF"/>
<path d="M37.3396 39.7559C36.9896 39.7559 36.6796 39.5159 36.6096 39.1559C36.5296 38.7459 36.7896 38.3559 37.1896 38.2659C37.8196 38.1359 38.3996 37.8859 38.8496 37.5359C39.4196 37.1059 39.7296 36.5659 39.7296 35.9959C39.7296 35.4259 39.4196 34.8859 38.8596 34.4659C38.4196 34.1259 37.8696 33.8859 37.2196 33.7359C36.8196 33.6459 36.5596 33.2459 36.6496 32.8359C36.7396 32.4359 37.1396 32.1759 37.5496 32.2659C38.4096 32.4559 39.1596 32.7959 39.7696 33.2659C40.6996 33.9659 41.2296 34.9559 41.2296 35.9959C41.2296 37.0359 40.6896 38.0259 39.7596 38.7359C39.1396 39.2159 38.3596 39.5659 37.4996 39.7359C37.4396 39.7559 37.3896 39.7559 37.3396 39.7559Z" fill="#3453BF"/>
</svg>
