<svg width="218" height="50" viewBox="0 0 218 50" fill="none" xmlns="http://www.w3.org/2000/svg">
<path d="M37.931 20.6895H74.1379V29.3101C74.1379 39.0633 74.1379 43.9399 71.108 46.9699C68.0781 49.9998 63.2015 49.9998 53.4483 49.9998H37.931V20.6895Z" fill="#456EFE"/>
<rect width="65.5172" height="41.3793" rx="10.3448" fill="#182759"/>
<circle cx="55.1724" cy="31.0347" r="5.17241" fill="white"/>
<path d="M87.4639 23.198C86.0119 23.198 84.7946 22.978 83.8119 22.538C82.8293 22.098 82.0886 21.482 81.5899 20.69C81.0913 19.898 80.8346 18.9887 80.8199 17.962H84.3179C84.3326 18.49 84.4499 18.952 84.6699 19.348C84.9046 19.7293 85.2566 20.03 85.7259 20.25C86.2099 20.47 86.8333 20.58 87.5959 20.58C88.1826 20.58 88.6959 20.514 89.1359 20.382C89.5759 20.2353 89.9133 20.0153 90.1479 19.722C90.3826 19.414 90.4999 19.0253 90.4999 18.556C90.4999 18.204 90.4413 17.9107 90.3239 17.676C90.2066 17.4413 90.0013 17.2433 89.7079 17.082C89.4293 16.9207 89.0479 16.7887 88.5639 16.686C88.0799 16.5687 87.4786 16.444 86.7599 16.312C85.8359 16.18 85.0219 15.9893 84.3179 15.74C83.6286 15.4907 83.0493 15.1827 82.5799 14.816C82.1106 14.4493 81.7586 14.0093 81.5239 13.496C81.2893 12.968 81.1719 12.352 81.1719 11.648C81.1719 10.636 81.4213 9.77067 81.9199 9.052C82.4333 8.31867 83.1593 7.754 84.0979 7.358C85.0366 6.962 86.1513 6.764 87.4419 6.764C88.7033 6.764 89.7886 6.962 90.6979 7.358C91.6073 7.754 92.3113 8.31133 92.8099 9.03C93.3233 9.74867 93.5799 10.5847 93.5799 11.538H90.1259C90.1113 11.0247 89.9719 10.6067 89.7079 10.284C89.4586 9.96133 89.1286 9.72667 88.7179 9.58C88.3073 9.43333 87.8453 9.36 87.3319 9.36C86.7893 9.36 86.3199 9.43333 85.9239 9.58C85.5426 9.712 85.2493 9.91733 85.0439 10.196C84.8386 10.46 84.7359 10.7973 84.7359 11.208C84.7359 11.6333 84.8459 11.978 85.0659 12.242C85.2859 12.4913 85.6746 12.6967 86.2319 12.858C86.8039 13.0047 87.5886 13.166 88.5859 13.342C89.2753 13.4447 89.9426 13.584 90.5879 13.76C91.2333 13.936 91.8199 14.2 92.3479 14.552C92.8759 14.8893 93.2939 15.366 93.6019 15.982C93.9099 16.5833 94.0639 17.368 94.0639 18.336C94.0639 19.2893 93.8146 20.14 93.3159 20.888C92.8319 21.6213 92.0986 22.1933 91.1159 22.604C90.1479 23 88.9306 23.198 87.4639 23.198ZM100.679 23.198C99.9604 23.198 99.3077 23.066 98.7211 22.802C98.1344 22.5233 97.6284 22.1273 97.2031 21.614C96.7777 21.086 96.4477 20.4407 96.2131 19.678C95.9931 18.9153 95.8831 18.0573 95.8831 17.104C95.8831 15.8133 96.0811 14.7133 96.4771 13.804C96.8877 12.88 97.4524 12.1833 98.1711 11.714C98.8897 11.23 99.7257 10.988 100.679 10.988C101.28 10.988 101.823 11.0833 102.307 11.274C102.791 11.45 103.209 11.7067 103.561 12.044C103.913 12.3667 104.17 12.748 104.331 13.188H104.507L104.639 11.208H107.697V23H104.639L104.507 20.998H104.331C104.096 21.658 103.649 22.1933 102.989 22.604C102.344 23 101.574 23.198 100.679 23.198ZM101.845 20.58C102.432 20.58 102.916 20.4553 103.297 20.206C103.693 19.9567 103.986 19.612 104.177 19.172C104.368 18.732 104.463 18.2333 104.463 17.676V16.51C104.463 15.938 104.36 15.4393 104.155 15.014C103.964 14.574 103.671 14.2293 103.275 13.98C102.894 13.7307 102.446 13.606 101.933 13.606C101.317 13.606 100.804 13.7453 100.393 14.024C99.9971 14.3027 99.6964 14.706 99.4911 15.234C99.2857 15.7473 99.1831 16.3707 99.1831 17.104C99.1831 17.808 99.2784 18.424 99.4691 18.952C99.6597 19.48 99.9531 19.8833 100.349 20.162C100.745 20.4407 101.244 20.58 101.845 20.58ZM113.389 23L109.363 11.208H112.839L114.665 17.962L115.325 20.536H115.457L116.117 17.962L117.943 11.208H121.441L117.415 23H113.389ZM127.942 23.22C126.71 23.22 125.661 22.9707 124.796 22.472C123.945 21.9733 123.293 21.2693 122.838 20.36C122.383 19.4507 122.156 18.3947 122.156 17.192C122.156 15.916 122.383 14.816 122.838 13.892C123.307 12.968 123.96 12.2567 124.796 11.758C125.647 11.2447 126.651 10.988 127.81 10.988C129.159 10.988 130.259 11.2813 131.11 11.868C131.975 12.4547 132.599 13.2613 132.98 14.288C133.361 15.3147 133.486 16.488 133.354 17.808H125.324C125.324 18.4533 125.427 19.0033 125.632 19.458C125.852 19.898 126.16 20.228 126.556 20.448C126.952 20.668 127.414 20.778 127.942 20.778C128.558 20.778 129.057 20.6533 129.438 20.404C129.819 20.1547 130.076 19.8247 130.208 19.414H133.266C133.149 20.1913 132.848 20.866 132.364 21.438C131.88 21.9953 131.257 22.4353 130.494 22.758C129.746 23.066 128.895 23.22 127.942 23.22ZM125.324 16.114L125.038 15.806H130.494L130.186 16.114C130.215 15.498 130.127 14.9993 129.922 14.618C129.731 14.222 129.453 13.9213 129.086 13.716C128.734 13.5107 128.309 13.408 127.81 13.408C127.311 13.408 126.871 13.518 126.49 13.738C126.123 13.9433 125.837 14.2513 125.632 14.662C125.441 15.058 125.339 15.542 125.324 16.114ZM140.155 23V6.962H143.389V13.342H143.521C143.843 12.55 144.342 11.9633 145.017 11.582C145.691 11.186 146.447 10.988 147.283 10.988C147.869 10.988 148.412 11.0833 148.911 11.274C149.424 11.45 149.864 11.7287 150.231 12.11C150.612 12.4913 150.905 12.9973 151.111 13.628C151.331 14.244 151.441 14.992 151.441 15.872V23H148.207V16.576C148.207 15.916 148.126 15.366 147.965 14.926C147.818 14.486 147.583 14.1633 147.261 13.958C146.938 13.738 146.513 13.628 145.985 13.628C145.427 13.628 144.958 13.76 144.577 14.024C144.195 14.288 143.902 14.6327 143.697 15.058C143.491 15.4833 143.389 15.9453 143.389 16.444V23H140.155ZM158.343 23.198C157.624 23.198 156.972 23.066 156.385 22.802C155.798 22.5233 155.292 22.1273 154.867 21.614C154.442 21.086 154.112 20.4407 153.877 19.678C153.657 18.9153 153.547 18.0573 153.547 17.104C153.547 15.8133 153.745 14.7133 154.141 13.804C154.552 12.88 155.116 12.1833 155.835 11.714C156.554 11.23 157.39 10.988 158.343 10.988C158.944 10.988 159.487 11.0833 159.971 11.274C160.455 11.45 160.873 11.7067 161.225 12.044C161.577 12.3667 161.834 12.748 161.995 13.188H162.171L162.303 11.208H165.361V23H162.303L162.171 20.998H161.995C161.76 21.658 161.313 22.1933 160.653 22.604C160.008 23 159.238 23.198 158.343 23.198ZM159.509 20.58C160.096 20.58 160.58 20.4553 160.961 20.206C161.357 19.9567 161.65 19.612 161.841 19.172C162.032 18.732 162.127 18.2333 162.127 17.676V16.51C162.127 15.938 162.024 15.4393 161.819 15.014C161.628 14.574 161.335 14.2293 160.939 13.98C160.558 13.7307 160.11 13.606 159.597 13.606C158.981 13.606 158.468 13.7453 158.057 14.024C157.661 14.3027 157.36 14.706 157.155 15.234C156.95 15.7473 156.847 16.3707 156.847 17.104C156.847 17.808 156.942 18.424 157.133 18.952C157.324 19.48 157.617 19.8833 158.013 20.162C158.409 20.4407 158.908 20.58 159.509 20.58ZM171.053 23L167.027 11.208H170.503L172.329 17.962L172.989 20.536H173.121L173.781 17.962L175.607 11.208H179.105L175.079 23H171.053ZM185.606 23.22C184.374 23.22 183.325 22.9707 182.46 22.472C181.609 21.9733 180.957 21.2693 180.502 20.36C180.047 19.4507 179.82 18.3947 179.82 17.192C179.82 15.916 180.047 14.816 180.502 13.892C180.971 12.968 181.624 12.2567 182.46 11.758C183.311 11.2447 184.315 10.988 185.474 10.988C186.823 10.988 187.923 11.2813 188.774 11.868C189.639 12.4547 190.263 13.2613 190.644 14.288C191.025 15.3147 191.15 16.488 191.018 17.808H182.988C182.988 18.4533 183.091 19.0033 183.296 19.458C183.516 19.898 183.824 20.228 184.22 20.448C184.616 20.668 185.078 20.778 185.606 20.778C186.222 20.778 186.721 20.6533 187.102 20.404C187.483 20.1547 187.74 19.8247 187.872 19.414H190.93C190.813 20.1913 190.512 20.866 190.028 21.438C189.544 21.9953 188.921 22.4353 188.158 22.758C187.41 23.066 186.559 23.22 185.606 23.22ZM182.988 16.114L182.702 15.806H188.158L187.85 16.114C187.879 15.498 187.791 14.9993 187.586 14.618C187.395 14.222 187.117 13.9213 186.75 13.716C186.398 13.5107 185.973 13.408 185.474 13.408C184.975 13.408 184.535 13.518 184.154 13.738C183.787 13.9433 183.501 14.2513 183.296 14.662C183.105 15.058 183.003 15.542 182.988 16.114ZM193.092 23V11.208H196.194L196.326 13.342H196.458C196.781 12.55 197.28 11.9633 197.954 11.582C198.629 11.186 199.384 10.988 200.22 10.988C200.807 10.988 201.35 11.0833 201.848 11.274C202.362 11.45 202.802 11.7287 203.168 12.11C203.55 12.4913 203.843 12.9973 204.048 13.628C204.268 14.244 204.378 14.992 204.378 15.872V23H201.144V16.576C201.144 15.916 201.064 15.366 200.902 14.926C200.756 14.486 200.521 14.1633 200.198 13.958C199.876 13.738 199.45 13.628 198.922 13.628C198.365 13.628 197.896 13.76 197.514 14.024C197.133 14.288 196.84 14.6327 196.634 15.058C196.429 15.4833 196.326 15.9453 196.326 16.444V23H193.092Z" fill="#182759"/>
<path d="M177.362 46V34.336H180.706L182.61 40.112L183.394 43.088H183.506L184.29 40.112L186.178 34.336H189.522V46H187.474V40.352L187.538 36.304H187.41L186.274 40.064L184.354 46H182.546L180.642 40.064L179.49 36.304H179.362L179.426 40.352V46H177.362ZM191.893 46V34.336H200.197V36.16H193.637L194.005 35.792V46H191.893ZM193.429 41.216V39.488H199.557V41.216H193.429ZM201.784 46V34.336H207.352C208.514 34.336 209.394 34.6133 209.992 35.168C210.589 35.712 210.888 36.432 210.888 37.328C210.888 37.7653 210.808 38.16 210.648 38.512C210.488 38.8533 210.258 39.1467 209.96 39.392C209.661 39.6373 209.298 39.808 208.872 39.904L208.856 40C209.389 40.0853 209.826 40.256 210.168 40.512C210.509 40.768 210.765 41.0827 210.936 41.456C211.106 41.8293 211.192 42.24 211.192 42.688C211.192 43.4027 211.026 44.0107 210.696 44.512C210.376 45.0027 209.912 45.376 209.304 45.632C208.696 45.8773 207.96 46 207.096 46H201.784ZM203.848 44.352H206.872C207.618 44.352 208.162 44.1867 208.504 43.856C208.856 43.5253 209.032 43.0933 209.032 42.56C209.032 41.984 208.85 41.552 208.488 41.264C208.136 40.976 207.645 40.832 207.016 40.832H203.64V39.248H206.92C207.336 39.248 207.677 39.1787 207.944 39.04C208.221 38.9013 208.424 38.7147 208.552 38.48C208.69 38.2347 208.76 37.9467 208.76 37.616C208.76 37.0827 208.578 36.6773 208.216 36.4C207.864 36.112 207.394 35.968 206.808 35.968H203.848V44.352Z" fill="#294298"/>
<line x1="85.0809" y1="44.5001" x2="172.669" y2="43.5001" stroke="#294298" stroke-width="3"/>
</svg>
