<svg width="1440" height="795" viewBox="0 0 1440 795" fill="none" xmlns="http://www.w3.org/2000/svg">
<circle cx="64.9999" cy="621" r="193" fill="#1F3172"/>
<path d="M-68.7839 860.871C-129.86 825.609 -174.622 767.746 -193.409 699.77C-212.196 631.795 -203.503 559.157 -169.204 497.535C-134.906 435.913 -77.7533 390.248 -10.0811 370.395C57.5912 350.542 130.356 358.094 192.509 391.42C254.662 424.746 301.22 481.175 322.133 548.527C343.046 615.879 336.639 688.753 304.293 751.422C271.947 814.091 216.257 861.529 149.242 883.498C82.2263 905.467 9.26017 900.204 -53.9092 868.847L-41.9633 844.782C14.8892 873.004 80.5587 877.74 140.872 857.968C201.186 838.196 251.307 795.502 280.419 739.1C309.53 682.698 315.297 617.111 296.475 556.494C277.653 495.877 235.751 445.091 179.813 415.098C123.875 385.104 58.3871 378.308 -2.51795 396.175C-63.4229 414.043 -114.86 455.142 -145.729 510.601C-176.598 566.061 -184.422 631.435 -167.513 692.613C-150.604 753.791 -110.319 805.868 -55.3505 837.604L-68.7839 860.871Z" fill="#1F3172"/>
<path d="M-213.413 458.968C-169.636 383.145 -97.8012 327.575 -13.4117 304.251C70.9779 280.927 161.155 291.719 237.656 334.3C314.158 376.88 370.85 447.833 395.497 531.846C420.143 615.859 410.768 706.194 369.395 783.355C328.021 860.516 257.967 918.316 174.352 944.279C90.7368 970.242 0.265608 962.287 -77.5359 922.131C-155.337 881.974 -214.23 812.837 -241.503 729.64C-268.777 646.443 -262.244 555.858 -223.314 477.435L-193.439 492.265C-228.475 562.846 -234.355 644.372 -209.809 719.25C-185.263 794.127 -132.259 856.351 -62.238 892.491C7.78335 928.632 89.2074 935.792 164.461 912.425C239.715 889.058 302.763 837.038 340 767.593C377.236 698.148 385.673 616.847 363.491 541.235C341.309 465.624 290.287 401.766 221.435 363.444C152.583 325.121 71.4244 315.408 -4.52614 336.399C-80.4768 357.391 -145.128 407.404 -184.527 475.646L-213.413 458.968Z" fill="#1F3172"/>
<path d="M22.5751 198.789C200.83 -109.957 595.622 -215.741 904.369 -37.4865C1213.12 140.768 1318.9 535.561 1140.64 844.307C962.39 1153.05 567.597 1258.84 258.851 1080.58C-49.8954 902.328 -155.68 507.536 22.5751 198.789ZM1123.87 834.625C1296.78 535.141 1194.17 152.192 894.686 -20.7155C595.202 -193.623 212.253 -91.0119 39.3461 208.472C-133.561 507.956 -30.9502 890.905 268.534 1063.81C568.018 1236.72 950.967 1134.11 1123.87 834.625Z" fill="#1F3172"/>
<path opacity="0.22" d="M719.933 610.245C584.951 376.449 665.055 77.4955 898.851 -57.4866C1132.65 -192.469 1431.6 -112.364 1566.58 121.432C1701.56 355.227 1621.46 654.181 1387.66 789.163C1153.87 924.145 854.915 844.041 719.933 610.245ZM1562.35 123.876C1428.72 -107.582 1132.75 -186.886 901.295 -53.2534C669.837 80.3789 590.534 376.343 724.166 607.801C857.798 839.259 1153.76 918.562 1385.22 784.93C1616.68 651.298 1695.98 355.334 1562.35 123.876Z" fill="#3758CB"/>
</svg>
