<svg width="30" height="30" viewBox="0 0 30 30" fill="none" xmlns="http://www.w3.org/2000/svg">
<g clip-path="url(#clip0_2428_8605)">
<rect x="30" width="30" height="30" rx="4.71101" transform="rotate(90 30 0)" fill="#182759"/>
<path d="M11.0343 24.7788C10.7125 24.3328 10.4895 23.8042 10.394 23.2175L9.86054 19.9401C9.74859 19.2522 9.3088 18.6426 8.68598 18.312L5.74397 16.7723C4.32745 16.031 3.58507 14.532 3.85998 12.9546C4.13489 11.3773 5.32818 10.2112 6.92022 9.98943L18.8077 8.30801C20.1388 8.11628 21.4597 8.67799 22.2481 9.77077C23.0365 10.8636 23.153 12.2941 22.5513 13.4969L17.2071 24.2476C16.4893 25.6811 15.0117 26.4532 13.4281 26.2167C12.4279 26.068 11.5868 25.5445 11.0343 24.7788ZM10.5843 18.1858C10.9115 18.6393 11.1292 19.1604 11.2235 19.7141L11.7569 22.9915C11.9458 24.1777 12.8542 24.7318 13.6369 24.8453C14.4196 24.9588 15.4456 24.7046 15.9808 23.629L21.3251 12.8782C21.6966 12.1241 21.6264 11.2592 21.133 10.5753C20.6396 9.89135 19.8409 9.55201 19.0007 9.67215L7.11317 11.3536C5.92368 11.5222 5.34608 12.4137 5.21978 13.1943C5.09347 13.975 5.32746 15.0043 6.38613 15.563L9.32814 17.1027C9.83127 17.3614 10.2571 17.7324 10.5843 18.1858Z" fill="white"/>
</g>
<defs>
<clipPath id="clip0_2428_8605">
<rect x="30" width="30" height="30" rx="4.71101" transform="rotate(90 30 0)" fill="white"/>
</clipPath>
</defs>
</svg>
