<svg width="22" height="22" viewBox="0 0 22 22" fill="none" xmlns="http://www.w3.org/2000/svg">
<path d="M14.7951 2.71337L6.51761 5.46337C0.953441 7.32421 0.953441 10.3584 6.51761 12.21L8.97427 13.0259L9.79011 15.4825C11.6418 21.0467 14.6851 21.0467 16.5368 15.4825L19.2959 7.21421C20.5243 3.50171 18.5076 1.47587 14.7951 2.71337ZM15.0884 7.64504L11.6051 11.1467C11.4676 11.2842 11.2934 11.3484 11.1193 11.3484C10.9451 11.3484 10.7709 11.2842 10.6334 11.1467C10.3676 10.8809 10.3676 10.4409 10.6334 10.175L14.1168 6.67337C14.3826 6.40754 14.8226 6.40754 15.0884 6.67337C15.3543 6.93921 15.3543 7.37921 15.0884 7.64504Z" fill="white"/>
</svg>
