<svg width="22" height="22" viewBox="0 0 22 22" fill="none" xmlns="http://www.w3.org/2000/svg">
<path d="M14.8408 1.83325H7.15909C3.82242 1.83325 1.83325 3.82242 1.83325 7.15908V14.8316C1.83325 18.1774 3.82242 20.1666 7.15909 20.1666H14.8316C18.1683 20.1666 20.1574 18.1774 20.1574 14.8408V7.15908C20.1666 3.82242 18.1774 1.83325 14.8408 1.83325ZM4.81242 10.8991C4.83992 9.28575 5.48159 7.76409 6.61825 6.62742C7.79158 5.45409 9.34992 4.81242 10.9999 4.81242C12.6499 4.81242 14.2083 5.45409 15.3724 6.62742C15.3999 6.65492 15.4274 6.69159 15.4549 6.72825V5.93992C15.4549 5.56409 15.7666 5.25242 16.1424 5.25242C16.5183 5.25242 16.8299 5.56409 16.8299 5.93992V8.36909C16.8299 8.74492 16.5183 9.05659 16.1424 9.05659H13.7133C13.3374 9.05659 13.0258 8.74492 13.0258 8.36909C13.0258 7.99325 13.3374 7.68159 13.7133 7.68159H14.4741C14.4466 7.65409 14.4283 7.62659 14.4008 7.59908C13.4933 6.69159 12.2833 6.18742 10.9999 6.18742C9.71659 6.18742 8.50659 6.69159 7.59909 7.59908C6.70992 8.48825 6.21492 9.67075 6.19659 10.9266C6.18742 11.2933 5.87575 11.5958 5.49992 11.5958H5.49075C5.11492 11.5958 4.81242 11.2749 4.81242 10.8991ZM15.3724 15.3724C14.2083 16.5366 12.6499 17.1874 10.9999 17.1874C9.34992 17.1874 7.79159 16.5458 6.62742 15.3724C6.59992 15.3449 6.57242 15.3083 6.54492 15.2716V16.0508C6.54492 16.4266 6.23325 16.7383 5.85742 16.7383C5.48159 16.7383 5.16992 16.4266 5.16992 16.0508V13.6216C5.16992 13.2458 5.48159 12.9341 5.85742 12.9341H8.28659C8.66242 12.9341 8.97409 13.2458 8.97409 13.6216C8.97409 13.9974 8.66242 14.3091 8.28659 14.3091H7.52575C7.55325 14.3366 7.57159 14.3641 7.59909 14.3916C8.50659 15.2991 9.71659 15.8033 10.9999 15.8033C12.2833 15.8033 13.4933 15.2991 14.4008 14.3916C15.2991 13.4933 15.8033 12.2924 15.8033 11.0091C15.8033 10.6333 16.1149 10.3216 16.4908 10.3216C16.8666 10.3216 17.1783 10.6333 17.1783 11.0091C17.1783 12.6683 16.5366 14.2174 15.3724 15.3724Z" fill="#182759"/>
</svg>
