<svg width="28" height="28" viewBox="0 0 28 28" fill="none" xmlns="http://www.w3.org/2000/svg">
<path d="M23 22.2238L12.7962 22.2238C12.29 22.2238 11.8737 21.8075 11.8737 21.3013C11.8737 20.795 12.29 20.3788 12.7962 20.3788L23 20.3788C23.5063 20.3788 23.9225 20.795 23.9225 21.3013C23.9225 21.8188 23.5063 22.2238 23 22.2238Z" fill="white"/>
<path d="M23 15.1475L12.7962 15.1475C12.29 15.1475 11.8737 14.7312 11.8737 14.225C11.8737 13.7187 12.29 13.3025 12.7962 13.3025L23 13.3025C23.5063 13.3025 23.9225 13.7187 23.9225 14.225C23.9225 14.7312 23.5063 15.1475 23 15.1475Z" fill="white"/>
<path d="M23 8.05997L12.7962 8.05997C12.29 8.05997 11.8737 7.64372 11.8737 7.13747C11.8737 6.63122 12.29 6.21497 12.7962 6.21497L23 6.21497C23.5063 6.21497 23.9225 6.63122 23.9225 7.13747C23.9225 7.64372 23.5063 8.05997 23 8.05997Z" fill="white"/>
<path d="M6.02376 9.59006C5.77626 9.59006 5.54001 9.48881 5.37126 9.32006L4.34751 8.29631C3.98751 7.93631 3.98751 7.35131 4.34751 6.99131C4.70751 6.63131 5.29251 6.63131 5.65251 6.99131L6.02376 7.36256L8.43126 4.95506C8.79127 4.59506 9.37626 4.59506 9.73626 4.95506C10.0963 5.31506 10.0963 5.90006 9.73626 6.26006L6.67626 9.32006C6.49626 9.48881 6.27126 9.59006 6.02376 9.59006Z" fill="white"/>
<path d="M6.02376 16.6776C5.78751 16.6776 5.55126 16.5876 5.37126 16.4076L4.34751 15.3838C3.98751 15.0238 3.98751 14.4388 4.34751 14.0788C4.70751 13.7188 5.29251 13.7188 5.65251 14.0788L6.02376 14.4501L8.43126 12.0426C8.79127 11.6826 9.37626 11.6826 9.73626 12.0426C10.0963 12.4026 10.0963 12.9876 9.73626 13.3476L6.67626 16.4076C6.49626 16.5876 6.26001 16.6776 6.02376 16.6776Z" fill="white"/>
<path d="M6.02376 23.4276C5.78751 23.4276 5.55126 23.3376 5.37126 23.1576L4.34751 22.1338C3.98751 21.7738 3.98751 21.1888 4.34751 20.8288C4.70751 20.4688 5.29251 20.4688 5.65251 20.8288L6.02376 21.2001L8.43126 18.7926C8.79127 18.4326 9.37626 18.4326 9.73626 18.7926C10.0963 19.1526 10.0963 19.7376 9.73626 20.0976L6.67626 23.1576C6.49626 23.3376 6.26001 23.4276 6.02376 23.4276Z" fill="white"/>
</svg>
