<svg width="1440" height="825" viewBox="0 0 1440 825" fill="none" xmlns="http://www.w3.org/2000/svg">
<circle cx="193" cy="193" r="193" transform="matrix(-1 0 0 1 1568 428)" fill="#1F3172"/>
<path d="M1508.78 860.871C1569.86 825.609 1614.62 767.746 1633.41 699.77C1652.2 631.795 1643.5 559.158 1609.2 497.535C1574.91 435.913 1517.75 390.248 1450.08 370.395C1382.41 350.542 1309.64 358.094 1247.49 391.42C1185.34 424.747 1138.78 481.175 1117.87 548.527C1096.95 615.879 1103.36 688.753 1135.71 751.422C1168.05 814.091 1223.74 861.529 1290.76 883.498C1357.77 905.467 1430.74 900.205 1493.91 868.847L1481.96 844.782C1425.11 873.004 1359.44 877.74 1299.13 857.968C1238.81 838.196 1188.69 795.502 1159.58 739.1C1130.47 682.698 1124.7 617.111 1143.53 556.494C1162.35 495.877 1204.25 445.092 1260.19 415.098C1316.12 385.104 1381.61 378.308 1442.52 396.176C1503.42 414.043 1554.86 455.142 1585.73 510.602C1616.6 566.062 1624.42 631.435 1607.51 692.613C1590.6 753.791 1550.32 805.868 1495.35 837.604L1508.78 860.871Z" fill="#1F3172"/>
<path d="M1653.41 458.969C1609.64 383.145 1537.8 327.575 1453.41 304.251C1369.02 280.927 1278.85 291.72 1202.34 334.3C1125.84 376.88 1069.15 447.833 1044.5 531.846C1019.86 615.859 1029.23 706.194 1070.61 783.355C1111.98 860.516 1182.03 918.316 1265.65 944.279C1349.26 970.242 1439.73 962.287 1517.54 922.131C1595.34 881.974 1654.23 812.837 1681.5 729.64C1708.78 646.443 1702.24 555.858 1663.31 477.435L1633.44 492.266C1668.48 562.846 1674.35 644.372 1649.81 719.25C1625.26 794.127 1572.26 856.351 1502.24 892.492C1432.22 928.632 1350.79 935.792 1275.54 912.425C1200.29 889.058 1137.24 837.039 1100 767.594C1062.76 698.149 1054.33 616.847 1076.51 541.235C1098.69 465.624 1149.71 401.766 1218.56 363.444C1287.42 325.122 1368.58 315.408 1444.53 336.4C1520.48 357.391 1585.13 407.405 1624.53 475.646L1653.41 458.969Z" fill="#1F3172"/>
<path d="M1417.42 198.79C1239.17 -109.957 844.378 -215.741 535.631 -37.4864C226.885 140.768 121.1 535.561 299.355 844.307C477.61 1153.05 872.403 1258.84 1181.15 1080.58C1489.9 902.328 1595.68 507.536 1417.42 198.79ZM316.126 834.625C143.219 535.141 245.83 152.192 545.314 -20.7154C844.798 -193.623 1227.75 -91.0117 1400.65 208.472C1573.56 507.956 1470.95 890.905 1171.47 1063.81C871.982 1236.72 489.033 1134.11 316.126 834.625Z" fill="#1F3172"/>
<path opacity="0.22" d="M720.067 610.245C855.049 376.449 774.945 77.4956 541.149 -57.4865C307.353 -192.469 8.39938 -112.364 -126.583 121.432C-261.565 355.228 -181.46 654.181 52.3354 789.163C286.131 924.145 585.085 844.041 720.067 610.245ZM-122.35 123.876C11.2828 -107.582 307.247 -186.886 538.705 -53.2533C770.163 80.379 849.466 376.343 715.834 607.801C582.202 839.259 286.237 918.562 54.7795 784.93C-176.678 651.298 -255.982 355.334 -122.35 123.876Z" fill="#294298"/>
</svg>
