<svg width="32" height="33" viewBox="0 0 32 33" fill="none" xmlns="http://www.w3.org/2000/svg">
<path d="M26.9333 13.9685C26.9333 14.2619 26.6933 14.5032 26.4 14.4885C24.8327 14.41 23.3021 13.9866 21.9173 13.2485C21.5426 13.0485 21.0666 13.3085 21.0666 13.7339V21.1685C21.0666 22.7281 20.6107 24.2535 19.755 25.5574C18.8994 26.8612 17.6813 27.8865 16.2506 28.5072C14.82 29.1278 13.2391 29.3168 11.7024 29.0509C10.1657 28.785 8.74031 28.0757 7.60144 27.0103C6.46257 25.9449 5.65992 24.5699 5.29221 23.0543C4.9245 21.5388 5.00777 19.9488 5.53178 18.48C6.05579 17.0112 6.99769 15.7275 8.24162 14.7869C9.48555 13.8463 10.9773 13.2898 12.5333 13.1859C12.6029 13.1822 12.6724 13.1929 12.7376 13.2173C12.8028 13.2417 12.8623 13.2793 12.9124 13.3277C12.9624 13.3761 13.002 13.4343 13.0285 13.4987C13.055 13.5631 13.068 13.6323 13.0666 13.7019V17.4352C13.0666 17.7285 12.8267 17.9645 12.536 18.0125C11.9342 18.1137 11.374 18.3849 10.9212 18.794C10.4685 19.2031 10.1421 19.7331 9.98069 20.3216C9.81924 20.91 9.82941 21.5324 10.01 22.1152C10.1906 22.6981 10.534 23.2172 10.9999 23.6113C11.4658 24.0054 12.0346 24.2581 12.6393 24.3396C13.2441 24.4211 13.8595 24.3279 14.4131 24.0712C14.9666 23.8144 15.4352 23.4048 15.7637 22.8905C16.0921 22.3762 16.2666 21.7787 16.2666 21.1685V4.36854C16.2666 4.22709 16.3228 4.09143 16.4229 3.99141C16.5229 3.8914 16.6585 3.83521 16.8 3.83521H20.5333C20.6759 3.83884 20.812 3.8955 20.9151 3.99412C21.0181 4.09274 21.0807 4.22624 21.0906 4.36854C21.2153 5.73484 21.8149 7.01422 22.7852 7.98423C23.7554 8.95424 25.035 9.55352 26.4013 9.67787C26.6946 9.70454 26.9346 9.94054 26.9346 10.2352L26.9333 13.9685Z" stroke="#182759" stroke-width="1.5" stroke-linecap="round" stroke-linejoin="round"/>
</svg>
