<svg width="44" height="45" viewBox="0 0 44 45" fill="none" xmlns="http://www.w3.org/2000/svg">
<rect x="44" y="0.555176" width="44" height="44" rx="7" transform="rotate(90 44 0.555176)" fill="#182759"/>
<rect x="43.5" y="1.05518" width="43" height="43" rx="6.5" transform="rotate(90 43.5 1.05518)" stroke="white" stroke-opacity="0.5"/>
<g filter="url(#filter0_d_2428_7523)">
<rect x="7.25" y="9.80518" width="28.5" height="28.5" rx="14.25" stroke="white" stroke-width="1.5" shape-rendering="crispEdges"/>
<path d="M25.6735 19.8823L30.7318 14.8237M33.501 27.7471C31.4201 29.8281 28.5978 30.9972 25.655 30.9972C22.7122 30.9972 19.8899 29.8281 17.809 27.7471C15.7281 25.6662 14.5591 22.8437 14.5591 19.9008C14.5591 16.9578 15.7281 14.1354 17.809 12.0544L33.501 27.7471Z" stroke="white" stroke-width="1.3" stroke-linecap="round" stroke-linejoin="round"/>
<path d="M15.8867 25.1082L9.49916 36.0561H21.4989L19.5051 29.0959" stroke="white" stroke-width="1.3" stroke-linecap="round" stroke-linejoin="round"/>
</g>
<defs>
<filter id="filter0_d_2428_7523" x="2.5" y="5.05518" width="38" height="38" filterUnits="userSpaceOnUse" color-interpolation-filters="sRGB">
<feFlood flood-opacity="0" result="BackgroundImageFix"/>
<feColorMatrix in="SourceAlpha" type="matrix" values="0 0 0 0 0 0 0 0 0 0 0 0 0 0 0 0 0 0 127 0" result="hardAlpha"/>
<feOffset/>
<feGaussianBlur stdDeviation="0.5"/>
<feComposite in2="hardAlpha" operator="out"/>
<feColorMatrix type="matrix" values="0 0 0 0 0.117647 0 0 0 0 0.117647 0 0 0 0 0.117647 0 0 0 0.3 0"/>
<feBlend mode="normal" in2="BackgroundImageFix" result="effect1_dropShadow_2428_7523"/>
<feBlend mode="normal" in="SourceGraphic" in2="effect1_dropShadow_2428_7523" result="shape"/>
</filter>
</defs>
</svg>
