<svg width="32" height="33" viewBox="0 0 32 33" fill="none" xmlns="http://www.w3.org/2000/svg">
<path fill-rule="evenodd" clip-rule="evenodd" d="M26.3373 5.3807C26.4526 5.24885 26.5408 5.09559 26.5969 4.92965C26.653 4.76372 26.6758 4.58837 26.6641 4.41361C26.6524 4.23885 26.6064 4.0681 26.5287 3.91112C26.451 3.75414 26.3432 3.614 26.2113 3.4987C26.0795 3.3834 25.9262 3.2952 25.7603 3.23913C25.5943 3.18306 25.419 3.16023 25.2442 3.17193C25.0695 3.18363 24.8987 3.22963 24.7418 3.30732C24.5848 3.38501 24.4446 3.49285 24.3293 3.6247L17.516 11.4114L11.7333 3.70203C11.6091 3.53644 11.4481 3.40204 11.263 3.30946C11.0778 3.21689 10.8737 3.1687 10.6667 3.1687H5.33333C5.08572 3.1687 4.84299 3.23765 4.63236 3.36783C4.42172 3.49801 4.2515 3.68428 4.14076 3.90575C4.03003 4.12722 3.98315 4.37516 4.00539 4.62178C4.02763 4.86839 4.1181 5.10394 4.26667 5.30203L12.8493 16.7447L5.66267 24.958C5.54737 25.0899 5.45916 25.2432 5.4031 25.4091C5.34703 25.575 5.32419 25.7504 5.33589 25.9251C5.34759 26.0999 5.3936 26.2706 5.47129 26.4276C5.54897 26.5846 5.65682 26.7247 5.78867 26.84C5.92051 26.9553 6.07378 27.0435 6.23971 27.0996C6.40565 27.1557 6.581 27.1785 6.75576 27.1668C6.93052 27.1551 7.10127 27.1091 7.25825 27.0314C7.41523 26.9537 7.55537 26.8459 7.67067 26.714L14.484 18.926L20.2667 26.6354C20.3909 26.801 20.5519 26.9354 20.737 27.0279C20.9222 27.1205 21.1263 27.1687 21.3333 27.1687H26.6667C26.9143 27.1687 27.157 27.0998 27.3676 26.9696C27.5783 26.8394 27.7485 26.6531 27.8592 26.4317C27.97 26.2102 28.0168 25.9622 27.9946 25.7156C27.9724 25.469 27.8819 25.2335 27.7333 25.0354L19.1507 13.5927L26.3373 5.3807ZM22 24.502L8 5.83537H10L24 24.502H22Z" fill="#182759"/>
</svg>
